<svg xmlns="http://www.w3.org/2000/svg" width="102.491" height="102.491" viewBox="0 0 102.491 102.491">
  <g id="estrella" transform="translate(-0.5 -0.5)">
    <g id="Grupo_11" data-name="Grupo 11" transform="translate(49.518 0.5)">
      <path id="Trazado_15" data-name="Trazado 15" d="M13.728.5a492.83,492.83,0,0,1,2.228,51.246,492.83,492.83,0,0,1-2.228,51.246A492.83,492.83,0,0,1,11.5,51.746,492.83,492.83,0,0,1,13.728.5Z" transform="translate(-11.5 -0.5)" fill="#1d1d1b"/>
    </g>
    <g id="Grupo_12" data-name="Grupo 12" transform="translate(0.5 49.518)">
      <path id="Trazado_16" data-name="Trazado 16" d="M102.991,13.728a492.83,492.83,0,0,1-51.246,2.228A492.83,492.83,0,0,1,.5,13.728,492.83,492.83,0,0,1,51.746,11.5,492.83,492.83,0,0,1,102.991,13.728Z" transform="translate(-0.5 -11.5)" fill="#1d1d1b"/>
    </g>
    <g id="Grupo_13" data-name="Grupo 13" transform="translate(27.682 28.574)">
      <path id="Trazado_17" data-name="Trazado 17" d="M6.6,54.035c7.13-8.467,15.151-16.488,22.726-24.509C37.347,21.951,45.368,13.93,53.835,6.8c-7.13,8.467-15.151,16.488-22.726,24.509C23.088,38.884,15.512,46.46,6.6,54.035Z" transform="translate(-6.6 -6.8)" fill="#1d1d1b"/>
    </g>
    <g id="Grupo_14" data-name="Grupo 14" transform="translate(28.128 28.128)">
      <path id="Trazado_18" data-name="Trazado 18" d="M53.935,53.935c-8.467-7.13-16.488-15.151-24.509-22.726C21.851,23.188,13.83,15.167,6.7,6.7c8.467,7.13,16.488,15.151,24.509,22.726C38.784,37.447,46.805,45.468,53.935,53.935Z" transform="translate(-6.7 -6.7)" fill="#1d1d1b"/>
    </g>
    <circle id="Elipse_7" data-name="Elipse 7" cx="4.456" cy="4.456" r="4.456" transform="translate(47.289 47.289)" fill="#1d1d1b" stroke="#1d1d1b" stroke-miterlimit="10" stroke-width="0.75"/>
    <path id="Trazado_19" data-name="Trazado 19" d="M9.084,2.5l2.228,4.011,4.456,2.674-4.456,2.228L9.084,15.868,6.856,11.412,2.4,9.184,6.856,6.511Z" transform="translate(6.567 6.912)" fill="#1d1d1b"/>
    <path id="Trazado_20" data-name="Trazado 20" d="M23.228,4.2l.891,1.337,1.337.891-1.337.446-.891,1.782-.891-1.782L21,6.428l1.337-.891Z" transform="translate(70.851 12.788)" fill="#1d1d1b"/>
    <path id="Trazado_21" data-name="Trazado 21" d="M23.556,5l1.337,2.674,3.119,1.782-3.119,1.337-1.337,3.119-1.782-3.119L19.1,9.456l2.674-1.782Z" transform="translate(64.284 15.553)" fill="#1d1d1b"/>
  </g>
</svg>
