<svg xmlns="http://www.w3.org/2000/svg" width="722.772" height="474.817" viewBox="0 0 722.772 474.817">
  <g id="orbit" transform="translate(32.389 62.407)">
    <g id="Grupo_5" data-name="Grupo 5">
      <g id="Grupo_1" data-name="Grupo 1">
        <path id="Trazado_1" data-name="Trazado 1" d="M65.2,264a258.974,258.974,0,0,1,1.1,26.4,258.973,258.973,0,0,1-1.1,26.4,258.974,258.974,0,0,1-1.1-26.4A258.976,258.976,0,0,1,65.2,264Z" fill="#1d1d1b"/>
      </g>
      <g id="Grupo_2" data-name="Grupo 2">
        <path id="Trazado_2" data-name="Trazado 2" d="M91.6,290.4a258.976,258.976,0,0,1-26.4,1.1,258.976,258.976,0,0,1-26.4-1.1,258.976,258.976,0,0,1,26.4-1.1A258.976,258.976,0,0,1,91.6,290.4Z" fill="#1d1d1b"/>
      </g>
      <g id="Grupo_3" data-name="Grupo 3">
        <path id="Trazado_3" data-name="Trazado 3" d="M52.8,302.8c3.7-4.4,7.8-8.5,11.7-12.6,4.1-3.9,8.3-8,12.6-11.7-3.7,4.4-7.8,8.5-11.7,12.6C61.3,295,57.4,298.9,52.8,302.8Z" fill="#1d1d1b"/>
      </g>
      <g id="Grupo_4" data-name="Grupo 4">
        <path id="Trazado_4" data-name="Trazado 4" d="M77.4,302.5c-4.4-3.7-8.5-7.8-12.6-11.7-3.9-4.1-8-8.3-11.7-12.6,4.4,3.7,8.5,7.8,12.6,11.7C69.6,294,73.7,298.2,77.4,302.5Z" fill="#1d1d1b"/>
      </g>
      <circle id="Elipse_1" data-name="Elipse 1" cx="2.3" cy="2.3" r="2.3" transform="translate(62.9 288.1)" fill="#1d1d1b" stroke="#1d1d1b" stroke-miterlimit="10" stroke-width="0.75"/>
      <path id="Trazado_5" data-name="Trazado 5" d="M46.6,268.6l1.2,2L50,272l-2.2,1.2-1.2,2.3-1.1-2.3L43.2,272l2.3-1.4Z" fill="#1d1d1b"/>
      <path id="Trazado_6" data-name="Trazado 6" d="M87,272.5l.5.7.7.4-.7.2-.5,1-.5-1-.6-.2.6-.4Z" fill="#1d1d1b"/>
      <path id="Trazado_7" data-name="Trazado 7" d="M83.8,274.3l.7,1.4,1.6.9-1.6.7-.7,1.6-.9-1.6-1.4-.7,1.4-.9Z" fill="#1d1d1b"/>
    </g>
    <g id="Grupo_10" data-name="Grupo 10">
      <g id="Grupo_6" data-name="Grupo 6">
        <path id="Trazado_8" data-name="Trazado 8" d="M588.9,34.9A258.967,258.967,0,0,1,590,61.3a258.985,258.985,0,0,1-1.1,26.4,258.967,258.967,0,0,1-1.1-26.4A234.083,234.083,0,0,1,588.9,34.9Z" fill="#1d1d1b"/>
      </g>
      <g id="Grupo_7" data-name="Grupo 7">
        <path id="Trazado_9" data-name="Trazado 9" d="M615.3,61.3a258.974,258.974,0,0,1-26.4,1.1,258.975,258.975,0,0,1-26.4-1.1,317.351,317.351,0,0,1,52.8,0Z" fill="#1d1d1b"/>
      </g>
      <g id="Grupo_8" data-name="Grupo 8">
        <path id="Trazado_10" data-name="Trazado 10" d="M576.5,73.7c3.7-4.4,7.8-8.5,11.7-12.6,4.1-3.9,8.3-8,12.6-11.7-3.7,4.4-7.8,8.5-11.7,12.6C585,65.9,581.1,69.8,576.5,73.7Z" fill="#1d1d1b"/>
      </g>
      <g id="Grupo_9" data-name="Grupo 9">
        <path id="Trazado_11" data-name="Trazado 11" d="M601,73.5c-4.4-3.7-8.5-7.8-12.6-11.7-3.9-4.1-8-8.3-11.7-12.6,4.4,3.7,8.5,7.8,12.6,11.7C593.2,65,597.4,69.2,601,73.5Z" fill="#1d1d1b"/>
      </g>
      <circle id="Elipse_2" data-name="Elipse 2" cx="2.3" cy="2.3" r="2.3" transform="translate(586.6 59)" fill="#1d1d1b" stroke="#1d1d1b" stroke-miterlimit="10" stroke-width="0.75"/>
      <path id="Trazado_12" data-name="Trazado 12" d="M570.3,39.5l1.1,2.1,2.3,1.4-2.3,1.1-1.1,2.3-1.2-2.3L566.8,43l2.3-1.4Z" fill="#1d1d1b"/>
      <path id="Trazado_13" data-name="Trazado 13" d="M610.7,43.4l.4.7.7.5-.7.2-.4.9-.5-.9-.7-.2.7-.5Z" fill="#1d1d1b"/>
      <path id="Trazado_14" data-name="Trazado 14" d="M607.5,45.3l.7,1.4,1.6.9-1.6.7-.7,1.6-1-1.6-1.3-.7,1.3-.9Z" fill="#1d1d1b"/>
    </g>
    <ellipse id="Elipse_3" data-name="Elipse 3" cx="347.1" cy="106.6" rx="347.1" ry="106.6" transform="matrix(0.916, -0.401, 0.401, 0.916, -31.731, 216.417)" fill="none" stroke="#1d1d1b" stroke-miterlimit="10" stroke-width="1"/>
  </g>
</svg>
