<?xml version="1.0" encoding="utf-8"?>
<!-- Generator: Adobe Illustrator 24.3.0, SVG Export Plug-In . SVG Version: 6.00 Build 0)  -->
<svg version="1.1" id="Capa_1" xmlns="http://www.w3.org/2000/svg" xmlns:xlink="http://www.w3.org/1999/xlink" x="0px" y="0px"
	 viewBox="0 0 24 24" style="enable-background:new 0 0 24 24;" xml:space="preserve">
<style type="text/css">
	.st0{fill:#1D1D1B;}
	.st1{fill:#1D1D1B;stroke:#1D1D1B;stroke-width:0.75;stroke-miterlimit:10;}
</style>
<g>
	<path class="st0" d="M12,0.5c0.4,3.8,0.5,7.7,0.5,11.5c0,3.8-0.1,7.7-0.5,11.5c-0.4-3.8-0.5-7.7-0.5-11.5C11.5,8.2,11.6,4.3,12,0.5
		z"/>
</g>
<g>
	<path class="st0" d="M23.5,12c-3.8,0.4-7.7,0.5-11.5,0.5c-3.8,0-7.7-0.1-11.5-0.5c3.8-0.4,7.7-0.5,11.5-0.5
		C15.8,11.5,19.7,11.6,23.5,12z"/>
</g>
<g>
	<path class="st0" d="M6.6,17.4c1.6-1.9,3.4-3.7,5.1-5.5c1.8-1.7,3.6-3.5,5.5-5.1c-1.6,1.9-3.4,3.7-5.1,5.5
		C10.3,14,8.6,15.7,6.6,17.4z"/>
</g>
<g>
	<path class="st0" d="M17.3,17.3c-1.9-1.6-3.7-3.4-5.5-5.1c-1.7-1.8-3.5-3.6-5.1-5.5c1.9,1.6,3.7,3.4,5.5,5.1
		C13.9,13.6,15.7,15.4,17.3,17.3z"/>
</g>
<circle class="st1" cx="12" cy="12" r="1"/>
<polygon class="st0" points="3.9,2.5 4.4,3.4 5.4,4 4.4,4.5 3.9,5.5 3.4,4.5 2.4,4 3.4,3.4 "/>
<polygon class="st0" points="21.5,4.2 21.7,4.5 22,4.7 21.7,4.8 21.5,5.2 21.3,4.8 21,4.7 21.3,4.5 "/>
<polygon class="st0" points="20.1,5 20.4,5.6 21.1,6 20.4,6.3 20.1,7 19.7,6.3 19.1,6 19.7,5.6 "/>
</svg>
