<?xml version="1.0" encoding="utf-8"?>
<!-- Generator: Adobe Illustrator 24.3.0, SVG Export Plug-In . SVG Version: 6.00 Build 0)  -->
<svg version="1.1" id="Capa_1" xmlns="http://www.w3.org/2000/svg" xmlns:xlink="http://www.w3.org/1999/xlink" x="0px" y="0px"
	 viewBox="0 0 24 13" style="enable-background:new 0 0 24 13;" xml:space="preserve">
<style type="text/css">
	.st0{fill:#575756;}
	.st1{fill:#575756;stroke:#575756;stroke-width:0.25;stroke-miterlimit:10;}
	.st2{font-family:'Runalto';}
	.st3{font-size:6.0762px;}
</style>
<g>
	<path class="st0" d="M20.7,7c0.1,0.7,0.1,1.3,0.1,2s0,1.3-0.1,2c-0.1-0.7-0.1-1.3-0.1-2S20.6,7.6,20.7,7z"/>
</g>
<g>
	<path class="st0" d="M22.7,9c-0.7,0.1-1.3,0.1-2,0.1s-1.3,0-2-0.1c0.7-0.1,1.3-0.1,2-0.1S22,8.9,22.7,9z"/>
</g>
<g>
	<path class="st0" d="M19.7,9.9c0.3-0.3,0.6-0.6,0.9-1c0.3-0.3,0.6-0.6,1-0.9c-0.3,0.3-0.6,0.6-0.9,1C20.4,9.3,20.1,9.6,19.7,9.9z"
		/>
</g>
<g>
	<path class="st0" d="M21.6,9.9c-0.3-0.3-0.6-0.6-1-0.9c-0.3-0.3-0.6-0.6-0.9-1c0.3,0.3,0.6,0.6,1,0.9C21,9.2,21.3,9.6,21.6,9.9z"/>
</g>
<circle class="st1" cx="20.7" cy="9" r="0.2"/>
<text transform="matrix(1 0 0 1 0.644 5.0708)"><tspan x="0" y="0" class="st0 st2 st3">Fashion.</tspan><tspan x="0" y="6.3" class="st0 st2 st3">Week</tspan></text>
</svg>
