<?xml version="1.0" encoding="utf-8"?>
<!-- Generator: Adobe Illustrator 24.3.0, SVG Export Plug-In . SVG Version: 6.00 Build 0)  -->
<svg version="1.1" id="Capa_1" xmlns="http://www.w3.org/2000/svg" xmlns:xlink="http://www.w3.org/1999/xlink" x="0px" y="0px"
	 viewBox="0 0 658 350" style="enable-background:new 0 0 658 350;" xml:space="preserve">
<style type="text/css">
	.st0{fill:#1D1D1B;}
	.st1{fill:#1D1D1B;stroke:#1D1D1B;stroke-width:0.75;stroke-miterlimit:10;}
	.st2{fill:none;stroke:#1D1D1B;stroke-miterlimit:10;}
</style>
<g>
	<g>
		<g>
			<path class="st0" d="M65.2,264c0.9,8.7,1.1,17.7,1.1,26.4c0,8.7-0.2,17.7-1.1,26.4c-0.9-8.7-1.1-17.7-1.1-26.4
				C64.1,281.7,64.3,272.7,65.2,264z"/>
		</g>
		<g>
			<path class="st0" d="M91.6,290.4c-8.7,0.9-17.7,1.1-26.4,1.1s-17.7-0.2-26.4-1.1c8.7-0.9,17.7-1.1,26.4-1.1
				S82.9,289.5,91.6,290.4z"/>
		</g>
		<g>
			<path class="st0" d="M52.8,302.8c3.7-4.4,7.8-8.5,11.7-12.6c4.1-3.9,8.3-8,12.6-11.7c-3.7,4.4-7.8,8.5-11.7,12.6
				C61.3,295,57.4,298.9,52.8,302.8z"/>
		</g>
		<g>
			<path class="st0" d="M77.4,302.5c-4.4-3.7-8.5-7.8-12.6-11.7c-3.9-4.1-8-8.3-11.7-12.6c4.4,3.7,8.5,7.8,12.6,11.7
				C69.6,294,73.7,298.2,77.4,302.5z"/>
		</g>
		<circle class="st1" cx="65.2" cy="290.4" r="2.3"/>
		<polygon class="st0" points="46.6,268.6 47.8,270.6 50,272 47.8,273.2 46.6,275.5 45.5,273.2 43.2,272 45.5,270.6 		"/>
		<polygon class="st0" points="87,272.5 87.5,273.2 88.2,273.6 87.5,273.8 87,274.8 86.5,273.8 85.9,273.6 86.5,273.2 		"/>
		<polygon class="st0" points="83.8,274.3 84.5,275.7 86.1,276.6 84.5,277.3 83.8,278.9 82.9,277.3 81.5,276.6 82.9,275.7 		"/>
	</g>
	<g>
		<g>
			<path class="st0" d="M588.9,34.9c0.9,8.7,1.1,17.7,1.1,26.4s-0.2,17.7-1.1,26.4c-0.9-8.7-1.1-17.7-1.1-26.4
				S587.9,43.7,588.9,34.9z"/>
		</g>
		<g>
			<path class="st0" d="M615.3,61.3c-8.7,0.9-17.7,1.1-26.4,1.1s-17.7-0.2-26.4-1.1c8.7-0.9,17.7-1.1,26.4-1.1
				S606.5,60.4,615.3,61.3z"/>
		</g>
		<g>
			<path class="st0" d="M576.5,73.7c3.7-4.4,7.8-8.5,11.7-12.6c4.1-3.9,8.3-8,12.6-11.7c-3.7,4.4-7.8,8.5-11.7,12.6
				C585,65.9,581.1,69.8,576.5,73.7z"/>
		</g>
		<g>
			<path class="st0" d="M601,73.5c-4.4-3.7-8.5-7.8-12.6-11.7c-3.9-4.1-8-8.3-11.7-12.6c4.4,3.7,8.5,7.8,12.6,11.7
				C593.2,65,597.4,69.2,601,73.5z"/>
		</g>
		<circle class="st1" cx="588.9" cy="61.3" r="2.3"/>
		<polygon class="st0" points="570.3,39.5 571.4,41.6 573.7,43 571.4,44.1 570.3,46.4 569.1,44.1 566.8,43 569.1,41.6 		"/>
		<polygon class="st0" points="610.7,43.4 611.1,44.1 611.8,44.6 611.1,44.8 610.7,45.7 610.2,44.8 609.5,44.6 610.2,44.1 		"/>
		<polygon class="st0" points="607.5,45.3 608.2,46.7 609.8,47.6 608.2,48.3 607.5,49.9 606.5,48.3 605.2,47.6 606.5,46.7 		"/>
	</g>
	
		<ellipse transform="matrix(0.9162 -0.4007 0.4007 0.9162 -42.5556 146.4967)" class="st2" cx="329" cy="175" rx="347.1" ry="106.6"/>
</g>
</svg>
